<?xml version="1.0" standalone="no"?>
<!DOCTYPE svg PUBLIC "-//W3C//DTD SVG 20010904//EN"
 "http://www.w3.org/TR/2001/REC-SVG-20010904/DTD/svg10.dtd">
<svg version="1.0" xmlns="http://www.w3.org/2000/svg"
 width="700.000000pt" height="700.000000pt" viewBox="0 0 700.000000 700.000000"
 preserveAspectRatio="xMidYMid meet">
<metadata>
Created by potrace 1.11, written by Peter Selinger 2001-2013
</metadata>
<g transform="translate(0.000000,700.000000) scale(0.100000,-0.100000)"
fill="#000000" stroke="none">
<path d="M3308 6995 c-2 -1 -55 -5 -118 -9 -63 -3 -126 -8 -140 -10 -14 -3
-50 -7 -80 -10 -30 -4 -66 -8 -80 -11 -14 -2 -41 -6 -60 -9 -316 -41 -838
-193 -1133 -330 -43 -20 -81 -36 -84 -36 -18 0 -348 -175 -473 -250 -115 -70
-220 -140 -220 -148 0 -21 109 -197 122 -196 8 1 61 31 117 68 299 195 659
368 1012 487 67 22 131 42 141 44 10 2 22 6 26 9 5 3 19 7 33 10 13 2 69 16
124 30 103 26 325 70 405 80 182 23 202 25 325 34 140 9 524 9 637 -1 112 -10
281 -31 343 -43 11 -2 38 -6 60 -9 191 -25 675 -166 890 -259 33 -15 69 -30
80 -35 139 -55 445 -219 623 -333 68 -43 130 -78 137 -78 13 0 64 79 109 167
l16 33 -98 64 c-474 310 -1056 549 -1594 655 -137 27 -342 58 -438 66 -41 4
-91 9 -110 12 -36 5 -567 13 -572 8z"/>
<path d="M3190 6210 c-521 -52 -968 -182 -1409 -411 -133 -69 -334 -189 -424
-255 l-48 -35 35 -64 c19 -35 47 -82 61 -105 l26 -41 27 18 c295 199 482 302
737 406 158 65 414 148 504 163 14 3 34 7 43 10 43 13 213 43 328 59 206 27
637 27 830 -1 38 -5 161 -23 197 -29 274 -43 676 -180 968 -330 138 -70 346
-197 457 -277 69 -50 67 -51 138 74 44 77 49 92 36 100 -8 5 -36 24 -61 43
-25 19 -47 35 -50 35 -3 0 -26 15 -52 34 -27 18 -97 63 -158 99 -344 203 -789
376 -1140 443 -22 4 -44 8 -50 10 -24 5 -205 33 -265 40 -36 4 -74 9 -85 11
-42 8 -574 10 -645 3z"/>
<path d="M3319 5456 c-2 -2 -33 -7 -69 -10 -123 -12 -228 -28 -350 -51 -271
-51 -624 -183 -893 -333 -87 -48 -303 -188 -311 -201 -7 -10 107 -201 120
-201 5 0 64 35 130 79 230 152 459 263 709 346 57 19 224 63 265 70 19 3 53
10 75 15 60 13 94 18 160 24 33 3 83 9 110 12 127 17 491 7 625 -16 30 -5 75
-12 99 -15 104 -15 381 -92 504 -142 34 -13 76 -30 92 -36 102 -40 349 -174
477 -259 124 -82 152 -98 163 -86 27 30 106 171 103 186 -6 31 -269 198 -468
297 -313 157 -669 266 -975 301 -33 3 -73 8 -90 11 -37 6 -470 14 -476 9z"/>
<path d="M3387 4654 c-1 -1 -45 -4 -97 -7 -563 -35 -1116 -240 -1580 -586
l-115 -86 -540 -2 c-297 -1 -550 -2 -563 -2 -13 -1 -36 -14 -52 -29 -25 -26
-28 -35 -21 -88 0 -6 94 -103 207 -215 385 -381 355 -349 342 -373 -6 -11 -29
-50 -51 -86 -57 -91 -141 -264 -192 -391 -37 -90 -107 -307 -120 -368 -2 -9
-10 -45 -19 -81 -42 -176 -70 -428 -70 -620 1 -156 14 -271 48 -430 26 -116
130 -364 191 -454 14 -20 25 -39 25 -42 0 -15 146 -197 207 -259 95 -97 135
-131 233 -202 222 -161 456 -259 735 -308 134 -23 308 -26 1630 -22 1404 3
1410 3 1510 25 168 36 273 71 427 141 56 26 200 108 233 133 181 139 298 251
390 374 197 261 303 530 340 859 8 68 8 362 1 415 -3 19 -8 58 -11 85 -16 141
-48 297 -98 485 -54 199 -166 454 -302 689 l-49 83 282 280 c256 253 282 282
282 312 0 34 -36 85 -62 87 -7 1 -261 2 -563 3 l-550 2 -80 60 c-346 262 -711
435 -1137 540 -31 7 -72 16 -90 19 -18 3 -40 8 -48 10 -8 2 -35 7 -60 10 -25
3 -56 8 -70 10 -31 6 -85 13 -175 21 -66 6 -362 13 -368 8z m1623 -1648 c41
-3 86 -8 100 -11 14 -3 41 -8 60 -11 19 -3 78 -21 130 -39 347 -119 644 -379
796 -695 38 -80 81 -202 94 -267 5 -27 11 -57 14 -68 25 -118 25 -385 0 -498
-3 -12 -7 -33 -10 -47 -21 -113 -104 -303 -182 -420 -213 -315 -497 -512 -851
-589 -135 -30 -187 -33 -666 -36 -247 -2 -832 -7 -1300 -11 -1182 -10 -1150
-11 -1285 16 -30 6 -66 13 -80 15 -39 7 -158 49 -239 85 -334 146 -613 456
-726 807 -14 45 -28 94 -31 110 -2 15 -7 34 -10 42 -2 8 -7 37 -10 65 -3 28
-7 62 -10 76 -10 61 -4 246 12 330 3 19 8 46 10 60 3 14 14 58 25 98 108 390
405 716 798 876 66 27 234 70 311 81 25 3 56 8 70 10 42 7 242 7 295 0 249
-31 472 -127 677 -290 272 -216 426 -468 493 -808 10 -48 19 -86 20 -85 2 2 6
26 9 53 10 77 25 142 59 240 145 432 503 763 943 874 99 24 135 30 254 37 52
4 96 8 98 9 2 2 15 1 30 -1 15 -2 61 -5 102 -8z"/>
<path d="M2050 2169 c-19 -3 -50 -9 -69 -13 -103 -20 -266 -144 -324 -246 -91
-159 -90 -373 1 -529 33 -56 124 -149 179 -184 129 -81 310 -102 458 -51 342
116 473 537 253 815 -60 77 -111 120 -183 156 -89 45 -231 68 -315 52z"/>
<path d="M4822 2168 c-121 -18 -212 -66 -304 -160 -200 -202 -197 -524 6 -729
84 -85 169 -130 291 -155 33 -7 138 -6 180 1 161 27 322 151 391 300 41 90 51
142 48 242 -11 313 -298 549 -612 501z"/>
<path d="M3314 1194 c-101 -102 -184 -188 -184 -191 0 -3 50 -71 111 -152 61
-80 146 -192 188 -248 42 -56 79 -102 82 -103 3 0 61 75 130 168 68 92 127
172 132 177 35 42 117 158 117 164 0 11 -372 371 -383 371 -5 0 -92 -84 -193
-186z"/>
</g>
</svg>
