<?xml version="1.0" encoding="utf-8"?>
<!-- Generator: Adobe Illustrator 21.0.0, SVG Export Plug-In . SVG Version: 6.00 Build 0)  -->
<svg version="1.1" id="Layer_1" xmlns="http://www.w3.org/2000/svg" xmlns:xlink="http://www.w3.org/1999/xlink" x="0px" y="0px"
	 viewBox="0 0 397 373.4" style="enable-background:new 0 0 397 373.4;" xml:space="preserve">
<style type="text/css">
	.st0{clip-path:url(#SVGID_2_);fill:#007AFE;}
</style>
<g>
	<defs>
		<rect id="SVGID_1_" width="397" height="373.4"/>
	</defs>
	<clipPath id="SVGID_2_">
		<use xlink:href="#SVGID_1_"  style="overflow:visible;"/>
	</clipPath>
	<path class="st0" d="M0,198.4C1.2,139.3,23.2,89.5,67.3,49.8C93.7,26,124.6,10.5,159.6,3.9c62.1-11.6,118,2.6,166.6,42.9
		c33.7,28,55.4,63.9,65.5,106.6c4.8,20.1,6.3,40.6,4.4,61.2c-4.6,51.6-26.1,94.9-63.9,130.1c-11.2,10.5-23.7,19.3-37.1,26.8
		c-2,1.1-4,1.4-5.9,0c-1.7-1.3-2.2-3-1.8-5.1c0.4-1.8,1.6-2.8,3.1-3.6c10.7-6,20.8-12.9,30-20.9c33-28.5,54.1-64.1,62.8-106.8
		c3.4-16.7,4.5-33.6,3.1-50.5c-3.3-41.8-18.6-78.6-46.2-110.2c-26.8-30.7-60.3-50.7-100-59.9c-22.7-5.3-45.7-6.1-68.8-2.8
		C98,22.6,37.5,75.4,17.1,146.9c-6.6,23-9,46.4-6.2,70.2c7.6,64.3,39.6,112.9,95.4,145.8c0.8,0.5,1.6,0.8,2.3,1.3
		c2.5,1.5,3.4,4.3,2.1,6.7c-1.3,2.5-4.2,3.3-6.9,1.9c-6.9-3.7-13.6-7.8-20-12.4c-41.3-29.8-67.7-69.6-79.2-119.2
		C1.5,227.1,0.1,212.8,0,198.4"/>
	<path class="st0" d="M373.2,197.4c-1.2,52.3-20.8,96.3-60,131.3c-8.9,8-18.8,14.8-29.2,20.7c-2,1.1-3.9,1.3-5.8-0.1
		c-1.7-1.2-2.2-2.9-1.9-4.9c0.3-1.9,1.6-2.9,3.1-3.8c9.6-5.4,18.6-11.7,26.9-19c28.1-24.8,46.6-55.4,53.6-92.3
		c9.7-50.7-1.8-96.6-34.4-136.7c-24.8-30.5-57-49.9-95.8-57.1c-50.4-9.4-96.1,2.1-135.9,34.5c-30.9,25.1-50.1,57.7-57.4,97
		c-11.2,60.7,11.8,121.4,59.8,159.4c7.2,5.7,14.9,10.8,23,15.3c2.3,1.3,3.2,3.1,2.8,5.4c-0.3,1.9-1.9,3.5-4,3.9
		c-1.6,0.3-2.9-0.4-4.2-1.1c-26.8-15-48.3-35.5-64.4-61.6c-13.2-21.5-21.6-44.9-24.4-70c-5.7-51.1,8.1-96.6,41.7-135.6
		C93.5,52,127.2,32.3,167.4,25.7c63.2-10.4,117.2,8.1,160.8,55c22.8,24.5,36.5,53.8,42.4,86.7C372.3,177.3,373.1,187.3,373.2,197.4"
		/>
	<path class="st0" d="M349.4,202.9c-2.1,50.3-26.7,94.1-75.6,123.9c-0.9,0.6-1.8,1.2-3,1.3c-2.4,0.2-4.5-1-5.3-3.3
		c-0.8-2.2,0.1-4.5,2.2-5.8c3.1-1.9,6.2-3.7,9.2-5.8c32.8-22.7,53.6-53.5,60.3-92.9c7.3-43-3.3-81.6-31.3-115
		c-21.1-25.2-48-41.2-80.3-47.2c-44-8.2-83.7,2-118.1,30.7c-24.6,20.5-40.4,46.8-46.8,78.3c-8.8,43,0.6,82,27.4,116.7
		c11.4,14.8,25.6,26.6,42,35.7c2.5,1.4,3.5,3.2,3.1,5.4c-0.3,2.1-1.9,3.7-4.1,4.1c-1.4,0.3-2.7-0.3-3.9-0.9
		c-30.8-17.4-53.1-42.5-66.5-75.2c-9-21.8-12.3-44.5-10.7-67.9C52.7,120,100.1,64.6,163.8,49.5c77.1-18.2,155.4,26.5,178.8,102.2
		C347.1,166.3,349.2,181.1,349.4,202.9"/>
	<path class="st0" d="M71.5,196.3c0.1-61.7,43.2-114.1,102.5-125.7c67-13.1,132.9,29.5,148.2,95.9c12.5,54.2-11.8,110.4-59.8,138.3
		c-3,1.7-5.8,1.3-7.4-1.2c-1.6-2.6-0.7-5.4,2.3-7.2c24.4-14.6,41.9-35.1,51.4-61.9c23.8-66.9-16.5-138.8-85.9-153.9
		c-62.7-13.6-125.4,27-138.8,89.7C73.3,220.6,96,271.3,140.7,297c2.9,1.7,4.1,3.5,3.6,5.8c-0.7,3.6-4.4,5.1-7.8,3.1
		c-8.7-4.9-16.8-10.7-24.1-17.6c-21.2-19.8-34.2-44.1-39.2-72.7C72,208.9,71.6,202,71.5,196.3"/>
	<path class="st0" d="M301.8,194.2c-1.4,38.2-17.8,67.8-50.2,88.4c-3.7,2.3-7.6,0.5-8.2-2.9c-0.4-2.2,0.5-4,3-5.5
		c7.2-4.3,13.7-9.5,19.5-15.6c15.8-16.7,24.6-36.5,25.8-59.6c2.3-47.5-30.4-88.5-77.2-96.9c-48.6-8.7-96.5,23.5-107,71.7
		c-8.7,40.1,8.9,80.1,44.3,100.9c2.1,1.2,3.7,2.7,3.6,5.3c-0.2,3.8-4.2,5.7-7.8,3.7c-8-4.5-15.2-10-21.6-16.4
		c-16.7-16.8-26.8-37.1-29.8-60.6c-6.8-53.3,29.4-103.2,82.5-113.7c53.5-10.6,106.2,22.6,119.8,75.4
		C300.6,176.8,301.6,185.4,301.8,194.2"/>
	<path class="st0" d="M119.2,196.5c-0.4-40.1,26-73,62.3-80.9c44.1-9.6,87.3,19.3,95.2,63.9c5.6,31.5-9,64.1-36.2,80.8
		c-2.9,1.8-5.8,1.4-7.4-1.1c-1.6-2.5-0.8-5.4,2.2-7.3c17.8-11.6,28.6-27.8,32-48.8c4.6-28.8-10.5-58.2-36.5-71.7
		c-40.9-21.1-90.1,1.8-100.2,46.7c-6.4,28.6,6.4,58.5,31.5,74c0.6,0.4,1.3,0.8,1.9,1.2c2.3,1.6,2.9,4.4,1.5,6.7
		c-1.4,2.2-4.2,3-6.6,1.7c-5.4-3-10.3-6.7-14.8-11C127.8,235.1,119.6,215.8,119.2,196.5"/>
	<path class="st0" d="M143,194.6c0.1-30.4,20.7-54,48-57.7c29.8-4,57.6,16.3,62.2,46.2c3.5,22.9-4.9,41.4-23.7,54.9
		c-2.7,2-5.7,1.5-7.4-1c-1.6-2.4-0.8-5.2,1.9-7.2c14.6-10.5,21.3-24.7,19.9-42.6c-1.4-18.7-16.3-35.5-34.8-39.7
		c-25.8-5.9-50.6,10.3-55.6,36.2c-3.5,17.9,4.7,36.5,20.4,46.7c1.7,1.1,3.1,2.2,3.3,4.4c0.1,1.9-0.6,3.5-2.2,4.5
		c-1.8,1.1-3.6,1-5.4,0c-6-3.6-11.1-8.2-15.3-13.8C146.8,215.7,143.1,204.4,143,194.6"/>
	<path class="st0" d="M198.5,159.3c13.5,0,25.5,8.5,29.9,21.1c4.4,12.6,0.4,26.7-9.8,35c-2.1,1.7-4.3,1.9-6.2,0.6
		c-1.8-1.1-2.6-3.3-2-5.4c0.3-1.3,1.1-2.1,2.1-2.9c6.9-6,9.4-13.6,7.1-22.3c-2.3-8.9-8.4-14.2-17.3-16c-9.4-1.9-19.3,3.3-23.5,12.2
		c-4.2,8.8-1.9,19.6,5.5,25.9c0.6,0.5,1.3,1,1.9,1.5c2.3,1.8,2.8,4.6,1.2,6.9c-1.7,2.3-4.5,2.8-7,1c-6.4-4.5-10.6-10.6-12.6-18.1
		C162.6,178.8,177.8,159.3,198.5,159.3"/>
	<path class="st0" d="M205.7,190.7c0,4.1-3.3,7.3-7.5,7.3c-4.1-0.1-7.3-3.4-7.2-7.5c0.1-4,3.4-7.2,7.4-7.2
		C202.4,183.3,205.7,186.6,205.7,190.7"/>
</g>
</svg>
