<svg width="365" height="79" viewBox="0 0 365 79" fill="none" xmlns="http://www.w3.org/2000/svg">
<path d="M354.76 58.1257H351.579C351.01 58.1257 350.725 57.8409 350.725 57.2714V46.2689L341.414 26.9821C341.285 26.7232 341.285 26.4902 341.414 26.3349C341.543 26.1796 341.724 26.076 341.957 26.076H345.94C346.354 26.076 346.69 26.3608 346.923 26.9303L353.053 40.6252H353.364L359.39 26.9303C359.597 26.3608 359.933 26.076 360.373 26.076H364.356C364.615 26.076 364.822 26.1537 364.925 26.3349C365.029 26.4902 365.029 26.7232 364.9 26.9821L355.588 46.2689V57.2714C355.614 57.8409 355.329 58.1257 354.76 58.1257ZM331.326 58.1257H328.197C327.602 58.1257 327.291 57.8409 327.291 57.2714V30.8136C327.291 30.477 327.136 30.3217 326.8 30.3217H320.541C319.946 30.3217 319.635 30.0369 319.635 29.4674V26.9303C319.635 26.3608 319.946 26.076 320.541 26.076H339.008C339.603 26.076 339.914 26.3608 339.914 26.9303V29.4674C339.914 30.0369 339.603 30.3217 339.008 30.3217H332.723C332.361 30.3217 332.18 30.477 332.18 30.8136V57.2714C332.18 57.8409 331.895 58.1257 331.326 58.1257ZM315.057 26.9303V57.2714C315.057 57.8409 314.773 58.1257 314.204 58.1257H311.074C310.505 58.1257 310.22 57.8409 310.22 57.2714V26.9303C310.22 26.3608 310.505 26.076 311.074 26.076H314.204C314.773 26.076 315.057 26.3608 315.057 26.9303ZM296.072 58.1257H290.304C287.847 58.1257 285.959 57.4526 284.614 56.0805C283.269 54.7084 282.596 52.8186 282.596 50.411V33.8166C282.596 31.3572 283.269 29.4674 284.614 28.1212C285.959 26.775 287.847 26.1019 290.304 26.1019H296.072C298.503 26.1019 300.392 26.775 301.737 28.1212C303.107 29.4674 303.78 31.3572 303.78 33.8166V36.1983C303.78 36.7938 303.469 37.1044 302.875 37.1044H299.745C299.176 37.1044 298.891 36.7938 298.891 36.1983V33.9978C298.891 31.5385 297.702 30.3217 295.296 30.3217H290.977C288.597 30.3217 287.381 31.5385 287.381 33.9978V50.178C287.381 52.6374 288.571 53.8541 290.977 53.8541H295.296C297.676 53.8541 298.891 52.6374 298.891 50.178V47.9775C298.891 47.3821 299.176 47.0714 299.745 47.0714H302.875C303.469 47.0714 303.78 47.3821 303.78 47.9775V50.3592C303.78 52.7927 303.107 54.6825 301.737 56.0287C300.392 57.4526 298.503 58.1257 296.072 58.1257ZM260.843 58.1257H257.714C257.145 58.1257 256.86 57.8409 256.86 57.2714V33.5577C256.86 32.9882 257.145 32.7034 257.714 32.7034H260.843C261.413 32.7034 261.697 32.9882 261.697 33.5577V35.344H261.904C262.706 33.5836 264.387 32.7034 266.922 32.7034H269.12C271.552 32.7034 273.414 33.3765 274.707 34.6968C276.001 36.0171 276.647 37.9329 276.647 40.4181V57.2714C276.647 57.8409 276.337 58.1257 275.742 58.1257H272.612C272.043 58.1257 271.759 57.8409 271.759 57.2714V40.6252C271.759 38.1658 270.543 36.9491 268.137 36.9491H265.784C263.068 36.9491 261.697 38.3471 261.697 41.1948V57.2973C261.697 57.8409 261.413 58.1257 260.843 58.1257ZM237.151 44.2755H246.049C246.385 44.2755 246.54 44.1201 246.54 43.7836V40.5993C246.54 39.3308 246.255 38.4247 245.686 37.8293C245.117 37.2598 244.212 36.9491 242.945 36.9491H240.203C238.936 36.9491 238.03 37.2339 237.461 37.8293C236.892 38.3988 236.608 39.3308 236.608 40.5993V43.7836C236.634 44.0943 236.815 44.2755 237.151 44.2755ZM250.29 58.1257H239.53C237.073 58.1257 235.185 57.4526 233.84 56.0805C232.495 54.7084 231.823 52.8186 231.823 50.411V40.444C231.823 37.9846 232.495 36.0948 233.84 34.7486C235.185 33.4024 237.073 32.7293 239.53 32.7293H243.617C246.074 32.7293 247.988 33.4024 249.333 34.7486C250.704 36.0948 251.377 37.9846 251.377 40.444V46.7607C251.377 47.3562 251.092 47.6668 250.471 47.6668H237.125C236.763 47.6668 236.582 47.8222 236.582 48.1587V50.3074C236.582 52.7409 237.797 53.9577 240.229 53.9577H250.29C250.885 53.9577 251.196 54.2683 251.196 54.8638V57.349C251.17 57.8668 250.885 58.1257 250.29 58.1257ZM221.218 48.4176V37.4669C221.218 37.1303 221.037 36.975 220.675 36.975H214.751C212.398 36.975 211.208 38.1917 211.208 40.6511V48.9354C211.208 51.3947 212.372 52.6115 214.751 52.6115H217.131C219.847 52.5856 221.218 51.1876 221.218 48.4176ZM215.993 56.883H213.743C211.363 56.883 209.527 56.2099 208.233 54.8638C206.94 53.5176 206.319 51.6277 206.319 49.1684V40.444C206.319 37.9846 206.992 36.0948 208.363 34.7486C209.734 33.4024 211.622 32.7293 214.027 32.7293H225.175C225.77 32.7293 226.081 33.0141 226.081 33.5836V58.2551C226.081 60.6886 225.382 62.5526 224.011 63.8988C222.64 65.2449 220.726 65.918 218.321 65.918H208.958C208.389 65.918 208.104 65.6592 208.104 65.1155V62.5267C208.104 61.9571 208.389 61.6724 208.958 61.6724H217.571C220.002 61.6724 221.192 60.4556 221.192 57.9962V54.1907H220.985C220.183 55.977 218.502 56.883 215.993 56.883ZM194.033 58.1257H190.904C190.335 58.1257 190.05 57.8409 190.05 57.2714V33.5577C190.05 32.9882 190.335 32.7034 190.904 32.7034H194.033C194.602 32.7034 194.887 32.9882 194.887 33.5577V35.4476H195.094C195.43 34.6192 196.077 33.9461 197.008 33.4542C197.965 32.9623 199 32.7034 200.163 32.7034H202C202.569 32.7034 202.853 32.9882 202.853 33.5577V36.1466C202.853 36.7679 202.569 37.0527 202 36.9491H199.025C196.284 36.9491 194.887 38.4506 194.887 41.4795V57.2714C194.887 57.8409 194.602 58.1257 194.033 58.1257ZM170.341 44.2755H179.264C179.601 44.2755 179.756 44.1201 179.756 43.7836V40.5993C179.756 39.3308 179.471 38.4247 178.902 37.8293C178.333 37.2598 177.428 36.9491 176.16 36.9491H173.419C172.151 36.9491 171.246 37.2339 170.677 37.8293C170.108 38.3988 169.823 39.3308 169.823 40.5993V43.7836C169.849 44.0943 170.005 44.2755 170.341 44.2755ZM183.48 58.1257H172.72C170.263 58.1257 168.375 57.4526 167.03 56.0805C165.685 54.7084 165.013 52.8186 165.013 50.411V40.444C165.013 37.9846 165.685 36.0948 167.03 34.7486C168.375 33.4024 170.263 32.7293 172.72 32.7293H176.807C179.264 32.7293 181.178 33.4024 182.523 34.7486C183.894 36.0948 184.567 37.9846 184.567 40.444V46.7607C184.567 47.3562 184.282 47.6668 183.687 47.6668H170.341C169.979 47.6668 169.798 47.8222 169.798 48.1587V50.3074C169.798 52.7409 171.013 53.9577 173.445 53.9577H183.506C184.101 53.9577 184.412 54.2683 184.412 54.8638V57.349C184.386 57.8668 184.075 58.1257 183.48 58.1257ZM130.327 58.1257H127.197C126.628 58.1257 126.344 57.8409 126.344 57.2714V33.5577C126.344 32.9882 126.628 32.7034 127.197 32.7034H130.327C130.896 32.7034 131.181 32.9882 131.181 33.5577V35.344H131.388C132.345 33.5836 134.103 32.7034 136.664 32.7034H138.294C141.191 32.7034 143.234 33.7907 144.475 35.9912C145.019 34.9298 145.82 34.1014 146.907 33.5577C147.993 32.9882 149.183 32.7034 150.45 32.7034H152.054C154.485 32.7034 156.322 33.3765 157.615 34.7227C158.882 36.0689 159.529 37.9587 159.529 40.4181V57.2714C159.529 57.8409 159.245 58.1257 158.676 58.1257H155.494C154.925 58.1257 154.641 57.8409 154.641 57.2714V40.6252C154.641 38.1658 153.451 36.9491 151.045 36.9491H149.597C146.855 36.9491 145.458 38.3988 145.458 41.2724V57.2714C145.458 57.8409 145.148 58.1257 144.553 58.1257H141.423C140.854 58.1257 140.57 57.8409 140.57 57.2714V40.6252C140.57 38.1658 139.38 36.9491 136.975 36.9491H135.242C132.526 36.9491 131.155 38.3471 131.155 41.1948V57.2973C131.155 57.8409 130.87 58.1257 130.327 58.1257ZM106.609 44.2755H115.532C115.868 44.2755 116.024 44.1201 116.024 43.7836V40.5993C116.024 39.3308 115.739 38.4247 115.17 37.8293C114.601 37.2598 113.696 36.9491 112.428 36.9491H109.687C108.419 36.9491 107.514 37.2339 106.945 37.8293C106.376 38.3988 106.091 39.3308 106.091 40.5993V43.7836C106.117 44.0943 106.298 44.2755 106.609 44.2755ZM119.774 58.1257H109.014C106.557 58.1257 104.669 57.4526 103.324 56.0805C101.979 54.7084 101.306 52.8186 101.306 50.411V40.444C101.306 37.9846 101.979 36.0948 103.324 34.7486C104.669 33.4024 106.557 32.7293 109.014 32.7293H113.101C115.558 32.7293 117.472 33.4024 118.817 34.7486C120.188 36.0948 120.86 37.9846 120.86 40.444V46.7607C120.86 47.3562 120.55 47.6668 119.955 47.6668H106.609C106.247 47.6668 106.065 47.8222 106.065 48.1587V50.3074C106.065 52.7409 107.281 53.9577 109.687 53.9577H119.748C120.343 53.9577 120.654 54.2683 120.654 54.8638V57.349C120.654 57.8668 120.369 58.1257 119.774 58.1257Z" fill="#1A202C"/>
<path d="M52.8013 78.7631C53.1461 78.7631 53.3874 78.4224 53.273 78.0971L49.8827 68.4641C49.8077 68.2508 49.7693 68.0263 49.7693 67.8001V7.85377C50.8884 7.07118 51.6157 5.78551 51.6157 4.3042C51.6157 1.92851 49.6854 0 47.3074 0C44.9295 0 42.9991 1.92851 42.9991 4.3042C42.9991 5.75756 43.7265 7.07118 44.8456 7.85377V67.8688C44.8456 68.05 44.8702 68.2303 44.9187 68.4048L47.5554 77.8847C47.6998 78.4039 48.1726 78.7631 48.7115 78.7631H52.8013Z" fill="#005B94"/>
<path d="M67.969 78.7632C68.3117 78.7632 68.4957 78.3604 68.2713 78.1013L59.767 68.2835C59.6883 68.1926 59.645 68.0763 59.645 67.9561V28.7398C60.764 27.9572 61.4914 26.6715 61.4914 25.1902C61.4634 22.8145 59.5331 20.886 57.1551 20.886C54.7771 20.886 52.8468 22.8145 52.8468 25.1902C52.8468 26.6436 53.5742 27.9572 54.6932 28.7398V67.8381C54.6932 68.0366 54.7523 68.2305 54.8629 68.3953L61.2262 77.8777C61.5976 78.4312 62.2204 78.7632 62.8869 78.7632H67.969Z" fill="#009EDB"/>
<path d="M79.4817 78.7633C78.8252 78.7633 78.1868 78.548 77.6645 78.1503L64.9182 68.4466C64.6697 68.2575 64.5239 67.9631 64.5239 67.6509V16.2502C63.4049 15.4956 62.6775 14.1819 62.6775 12.7286C62.6775 10.3529 64.6078 8.42438 66.9858 8.42438C69.3638 8.42438 71.2941 10.3529 71.2941 12.7286C71.2941 14.1819 70.5667 15.4676 69.4477 16.2502V67.8849C69.4477 68.0487 69.528 68.2022 69.6625 68.2956L83.9525 78.2169C84.1939 78.3845 84.0753 78.7633 83.7814 78.7633L79.4817 78.7633Z" fill="#2A854E"/>
<path d="M16.7706 78.7632C16.4279 78.7632 16.2439 78.3604 16.4683 78.1013L24.9726 68.2835C25.0513 68.1926 25.0946 68.0764 25.0946 67.9561V16.8596C23.9756 16.077 23.2482 14.7913 23.2482 13.31C23.2762 10.9343 25.2065 9.00583 27.5845 9.00583C29.9625 9.00583 31.8928 10.9343 31.8928 13.31C31.8928 14.7634 31.1654 16.077 30.0464 16.8596V67.8381C30.0464 68.0366 29.9873 68.2305 29.8767 68.3953L23.5134 77.8777C23.142 78.4312 22.5192 78.7632 21.8527 78.7632H16.7706Z" fill="#F37021"/>
<path d="M31.9382 78.7631C31.5934 78.7631 31.3521 78.4223 31.4665 78.0971L34.8567 68.4641C34.9318 68.2507 34.9702 68.0262 34.9702 67.8001L34.9702 42.5908C33.8511 41.8082 33.1238 40.5225 33.1238 39.0412C33.1238 36.6655 35.0541 34.737 37.4321 34.737C39.81 34.737 41.7404 36.6655 41.7404 39.0412C41.7404 40.4946 41.013 41.8082 39.8939 42.5908L39.8939 67.8688C39.8939 68.0499 39.8693 68.2302 39.8208 68.4047L37.1841 77.8846C37.0397 78.4038 36.5669 78.7631 36.028 78.7631H31.9382Z" fill="#B82837"/>
<path d="M5.25786 78.763C5.91435 78.763 6.55271 78.5476 7.07506 78.15L19.8214 68.4463C20.0698 68.2571 20.2157 67.9628 20.2157 67.6506L20.2157 31.4463C21.3347 30.6917 22.0621 29.3781 22.0621 27.9247C22.0621 25.549 20.1317 23.6205 17.7537 23.6205C15.3758 23.6205 13.4455 25.549 13.4455 27.9247C13.4455 29.3781 14.1728 30.6637 15.2919 31.4463L15.2919 67.8845C15.2919 68.0484 15.2116 68.2018 15.077 68.2953L0.787065 78.2166C0.545641 78.3842 0.664252 78.763 0.958158 78.763L5.25786 78.763Z" fill="#F3C937"/>
</svg>
