<?xml version="1.0" encoding="utf-8"?>
<!-- Generator: Adobe Illustrator 19.0.0, SVG Export Plug-In . SVG Version: 6.00 Build 0)  -->
<svg version="1.1" id="Layer_1" xmlns="http://www.w3.org/2000/svg" xmlns:xlink="http://www.w3.org/1999/xlink" x="0px" y="0px"
	 viewBox="0 0 512 512" style="enable-background:new 0 0 512 512;" xml:space="preserve">
<style type="text/css">
	.st0{fill:#EC6500;}
	.st1{fill:#212121;}
</style>
<title  id="owl">OWL</title>
<g>
	<path class="st0" d="M257.7,0c49.2-0.1,97.8,10.7,142.1,31.9c16.2,7.6,31.8,16.5,46.6,26.5c1.2,0.7,1.3,1.3,0.6,2.5
		c-2.4,4.2-4.8,8.4-7.2,12.5c-0.6,1.1-1,1.3-2.2,0.5C416,59.2,392.7,47,368.2,37.7c-22.5-8.5-45.8-14.4-69.7-17.5
		c-15.2-2-30.4-2.9-45.8-2.6c-45.4,0.7-90.1,11.2-131.1,30.9c-15.5,7.4-30.3,15.9-44.5,25.7c-1.1,0.7-1.6,0.7-2.2-0.5
		c-2.3-4.2-4.7-8.4-7.2-12.4c-0.8-1.3-0.6-1.9,0.6-2.7c13.8-9.3,28.2-17.5,43-24.8c26.3-12.8,54.3-22.2,83-27.7
		c17.4-3.5,35.2-5.4,52.9-5.8C250.9,0,254.2,0,257.7,0z"/>
	<path class="st0" d="M417.7,111.3l-0.5,0.8c-2.5,4.4-5.2,8.7-7.6,13.1c-0.7,1.2-1.1,1.1-2.1,0.4c-24.9-18.5-52.8-32.4-82.6-41.1
		c-31.5-9.2-64.6-11.9-97.3-8.4c-28.2,3.2-55.5,11.1-81,23.4c-14.3,6.8-27.8,14.8-40.6,24.1c-1,0.7-1.4,0.8-2.2-0.4
		c-2.4-4.4-5-8.7-7.6-13c-0.5-1-0.4-1.3,0.5-1.9c29.2-21,62.5-36.1,97.6-44.3c52.7-12.3,108-8.5,158.4,11.2
		c22.7,8.8,44.1,20.5,63.8,34.9C417,110.3,417.6,110.5,417.7,111.3z"/>
	<path class="st0" d="M256.1,112.5c44,0.2,84.2,12.5,121.1,36.1c4.1,2.6,8.1,5.5,12.1,8.2c1.2,0.8,1.1,1.4,0.5,2.5
		c-2.5,4.2-5,8.4-7.4,12.5c-0.7,1.3-1.1,1.2-2.2,0.5c-22.8-17.2-49.1-29.6-76.8-36.4c-13.9-3.3-28.2-5.3-42.5-5.5
		c-46.5-1-88.3,12.9-126,39.8c-2.4,1.8-2.4,1.8-3.9-0.8c-2.3-3.8-4.5-7.8-6.8-11.6c-0.6-1-0.6-1.4,0.5-2.1
		c18.4-13.3,38.7-23.8,60.2-31c16.1-5.5,32.6-9.1,49.5-10.7C241.4,112.9,248.7,112.6,256.1,112.5z"/>
	<path class="st1" d="M156.8,512c-1.3-0.7-2.9-0.5-4.2-0.6c-30-2.7-55.7-14.6-77.3-35.2c-18.2-17.5-30.6-40.1-35.4-64.8
		c-2.2-11.8-2.9-24-1.9-35.9c1.1-19.3,4.7-38.6,11-56.9c5.4-16.1,12.8-31.5,22-45.8c0.6-0.6,0.6-1.7-0.1-2.3c-0.1,0-0.1-0.1-0.2-0.1
		c-12.8-12.5-25.6-25.2-38.4-37.8c-2.7-2.4-2.9-6.4-0.5-9.1c0.2-0.2,0.5-0.6,0.8-0.7c1.3-1,2.9-1.6,4.6-1.4h65.7c4.1,0,8.1,0,12.2,0
		c1,0,1.9-0.2,2.7-1c80.6-65.3,196.7-65.3,277.2,0.1c0.7,0.6,1.7,0.8,2.5,0.7c25.9,0,51.7,0,77.7,0c3.7-0.1,6.8,2.7,6.9,6.4
		c0,0.8-0.1,1.6-0.4,2.4c-0.5,1.1-1.2,2-2.1,2.9c-12.6,12.4-25.1,24.8-37.7,37.1c-1.1,1.1-1.1,1.7-0.2,3c15,23.5,25.1,49.7,30,77
		c2.7,14.3,3.7,29,3.1,43.6c-1.2,29.1-12.9,56.9-33.1,78.3c-19.6,21-43.9,33.8-72.4,38.6c-5.7,1-11.5,1.4-17.2,1.6
		c-0.5,0-0.8,0.1-1.3,0.1L156.8,512z M257,381.8c-0.5-1.7-0.7-3.5-0.8-5.3c-3.6-22.1-13.4-41.2-30.2-56.5
		c-26.3-23.9-57.4-32-92.1-23.9C83.5,308,51.1,356.9,59.7,407.4c7.6,45.5,46.2,79.7,92.8,82.1c7.7,0.4,15.3,0.1,23.1,0
		c15.5-0.1,31.1-0.2,46.5-0.4l47-0.4c15.5-0.1,31.1-0.2,46.5-0.4c13.7-0.1,27.3-0.1,40.8-0.2c5.8,0,11.6-0.5,17.4-1.6
		c21.7-4.1,40.4-13.8,55.2-30.1c22-23.9,30.2-52,24.9-83.8c-3.4-21-13.9-40.2-29.8-54.4c-25.4-23-55.5-31.3-89.2-24.4
		C292.1,303.1,261,338.4,257,381.8L257,381.8z"/>
	<path class="st1" d="M155.3,352.9c21.6,0,39.1,17.4,39.1,38.8s-17.6,38.7-39.3,38.7S116,412.9,116,391.6c0-0.1,0-0.1,0-0.2
		C116.1,369.9,133.7,352.9,155.3,352.9z"/>
	<path class="st1" d="M397.7,391.6c0,21.4-17.5,38.7-39.1,38.7s-39.1-17.3-39.1-38.7s17.5-38.7,39.1-38.7l0,0
		C380.3,352.9,397.8,370.2,397.7,391.6z"/>
	<path class="st1" d="M257,475.7c-0.5-0.2-0.7-0.6-1-1c-8.8-11.6-17.6-23.3-26.5-34.9c-0.7-1-0.6-1.4,0.1-2.3
		c8.7-8.6,17.3-17.3,25.9-26c0.8-0.8,1.2-0.8,2.1,0c8.3,8.2,16.8,16.4,25.3,24.5c2.1,2,2.1,2,0.4,4.4l-25.4,34
		C257.5,474.9,257.3,475.4,257,475.7z"/>
</g>
</svg>
